<svg width="161" height="36" viewBox="0 0 161 36" fill="none" xmlns="http://www.w3.org/2000/svg">
<g clip-path="url(#clip0)">
<path d="M160.306 3.87V11.125H127.73L122.72 3.87H160.306Z" fill="#0FF2B2"/>
<path d="M160.306 16.237V35.776H129.546L125.192 29.471L113.725 12.863L113.707 12.891L110.589 17.406L102.914 28.521H118.266L123.276 35.776H89L94.01 28.521L106.14 10.96L109.259 6.44501L109.277 6.41901L113.71 0L118.16 6.44601L124.922 16.237L129.932 23.492L133.405 28.521H151.95V23.492H136.269L131.259 16.237H160.306Z" fill="#333E54"/>
</g>
<path fill-rule="evenodd" clip-rule="evenodd" d="M71 18C71 17.7643 70.9023 17.5382 70.7284 17.3715C70.5545 17.2049 70.3187 17.1112 70.0728 17.1112L3.16716 17.1112L9.00304 11.5191C9.17715 11.3522 9.27496 11.1259 9.27496 10.8899C9.27496 10.6539 9.17715 10.4275 9.00304 10.2606C8.82894 10.0938 8.5928 10 8.34658 10C8.10036 10 7.86422 10.0938 7.69011 10.2606L0.2724 17.3708C0.186052 17.4533 0.117545 17.5514 0.0708011 17.6594C0.0240576 17.7673 3.54801e-07 17.8831 3.49691e-07 18C3.44581e-07 18.1169 0.0240576 18.2327 0.0708011 18.3406C0.117545 18.4486 0.186052 18.5467 0.2724 18.6292L7.69011 25.7394C7.86422 25.9062 8.10036 26 8.34658 26C8.5928 26 8.82894 25.9062 9.00304 25.7394C9.17715 25.5725 9.27496 25.3461 9.27496 25.1101C9.27496 24.8741 9.17715 24.6478 9.00304 24.4809L3.16716 18.8888L70.0728 18.8888C70.3187 18.8888 70.5545 18.7951 70.7284 18.6285C70.9023 18.4618 71 18.2357 71 18Z" fill="#0FF2B2"/>
<defs>
<clipPath id="clip0">
<rect width="71.306" height="35.776" fill="white" transform="translate(89)"/>
</clipPath>
</defs>
</svg>
