<svg xmlns="http://www.w3.org/2000/svg" width="33.347" height="36.388" viewBox="0 0 33.347 36.388">
  <g id="Group_400" data-name="Group 400" transform="translate(-716.75 -387.27)">
    <path id="Path_409" data-name="Path 409" d="M750.1,392.879l-16.673,5.648-16.673-5.648,16.673-5.609Z" transform="translate(0 0)" fill="#8596a6"/>
    <g id="Group_398" data-name="Group 398" transform="translate(716.75 392.879)">
      <path id="Path_410" data-name="Path 410" d="M733.423,419.37l-16.673-5.648v25.13l16.673,5.648,16.673-5.648v-25.13Zm13.906,6.794-14.028,4.76-6.789-2.228v2.922l6.789,2.228,14.028-4.76v7.785l-13.906,4.707-13.906-4.707V417.585l13.906,4.707,13.906-4.707Z" transform="translate(-716.75 -413.722)" fill="#2b3240"/>
    </g>
    <g id="Group_399" data-name="Group 399" transform="translate(721.854 400.482)">
      <path id="Path_411" data-name="Path 411" d="M743.257,453.47v7.7l9.132,3.091L764.01,460.2v2.922l-11.622,4.064-11.569-3.977V449.665l11.566,3.974,11.624-4.064V452.5l-11.622,4.064Z" transform="translate(-740.82 -449.574)" fill="#2b3240"/>
    </g>
  </g>
</svg>
