<svg width="538" height="84" viewBox="0 0 538 84" fill="none" xmlns="http://www.w3.org/2000/svg">
<path d="M139.894 58.43V26.164C139.894 25.1907 139.748 24.5823 139.456 24.339C139.164 24.047 138.556 23.901 137.631 23.901H122.812V60.693H137.631C138.556 60.693 139.164 60.5713 139.456 60.328C139.748 60.036 139.894 59.4033 139.894 58.43ZM110.986 19.594H145.953C149.798 19.594 151.72 21.5163 151.72 25.361V59.233C151.72 63.0777 149.798 65 145.953 65H110.986V19.594ZM175.361 60.693H198.94V65H163.17V19.594H197.991V23.901H175.361V39.596H194.998V43.903H175.361V60.693ZM234.15 58.43V46.531C234.15 45.6063 234.004 44.998 233.712 44.706C233.468 44.414 232.86 44.268 231.887 44.268H212.177C208.332 44.268 206.41 42.3457 206.41 38.501V25.361C206.41 21.5163 208.332 19.594 212.177 19.594H239.917C243.761 19.594 245.684 21.5163 245.684 25.361V33.464H233.931V26.164C233.931 25.1907 233.785 24.5823 233.493 24.339C233.201 24.047 232.592 23.901 231.668 23.901H220.499C219.525 23.901 218.893 24.047 218.601 24.339C218.357 24.5823 218.236 25.1907 218.236 26.164V37.698C218.236 38.6713 218.357 39.304 218.601 39.596C218.893 39.8393 219.525 39.961 220.499 39.961H240.136C243.98 39.961 245.903 41.8833 245.903 45.728V59.233C245.903 63.0777 243.98 65 240.136 65H212.396C208.551 65 206.629 63.0777 206.629 59.233V51.13H218.382V58.43C218.382 59.4033 218.503 60.036 218.747 60.328C219.039 60.5713 219.671 60.693 220.645 60.693H231.887C232.86 60.693 233.468 60.5713 233.712 60.328C234.004 60.036 234.15 59.4033 234.15 58.43ZM257.214 19.594H269.332V65H257.214V19.594ZM321.359 34.121H309.533V26.164C309.533 25.1907 309.387 24.5823 309.095 24.339C308.852 24.047 308.243 23.901 307.27 23.901H295.371C294.446 23.901 293.838 24.047 293.546 24.339C293.254 24.5823 293.108 25.1907 293.108 26.164V58.43C293.108 59.4033 293.254 60.036 293.546 60.328C293.838 60.5713 294.446 60.693 295.371 60.693H307.343C308.268 60.693 308.876 60.5713 309.168 60.328C309.46 60.036 309.606 59.4033 309.606 58.43V45.947H300.7V41.64H321.359V59.233C321.359 63.0777 319.437 65 315.592 65H287.049C283.204 65 281.282 63.0777 281.282 59.233V25.361C281.282 21.5163 283.204 19.594 287.049 19.594H315.592C319.437 19.594 321.359 21.5163 321.359 25.361V34.121ZM363.148 19.594H374.025V65H363.586L343.073 31.055V65H332.196V19.594H342.854L363.148 53.466V19.594ZM386.019 19.594H420.84C424.685 19.594 426.607 21.5163 426.607 25.361V37.625C426.607 40.5937 425.269 42.151 422.592 42.297C425.269 42.5403 426.607 44.049 426.607 46.823V59.233C426.607 63.0777 424.685 65 420.84 65H386.019V19.594ZM415.292 58.795V46.677C415.292 45.7523 415.146 45.144 414.854 44.852C414.611 44.56 414.003 44.414 413.029 44.414H397.845V60.693H412.81C413.735 60.693 414.368 60.5713 414.708 60.328C415.098 60.036 415.292 59.525 415.292 58.795ZM415.292 37.844V26.164C415.292 25.1907 415.146 24.5823 414.854 24.339C414.611 24.047 414.003 23.901 413.029 23.901H397.845V40.107H413.029C414.003 40.107 414.611 39.9853 414.854 39.742C415.146 39.45 415.292 38.8173 415.292 37.844ZM477.407 25.361V59.233C477.407 63.0777 475.485 65 471.64 65H443.243C439.399 65 437.476 63.0777 437.476 59.233V25.361C437.476 21.5163 439.399 19.594 443.243 19.594H471.64C475.485 19.594 477.407 21.5163 477.407 25.361ZM465.654 58.43V26.164C465.654 25.1907 465.508 24.5823 465.216 24.339C464.924 24.047 464.316 23.901 463.391 23.901H451.565C450.641 23.901 450.032 24.047 449.74 24.339C449.448 24.5823 449.302 25.1907 449.302 26.164V58.43C449.302 59.4033 449.448 60.036 449.74 60.328C450.032 60.5713 450.641 60.693 451.565 60.693H463.391C464.316 60.693 464.924 60.5713 465.216 60.328C465.508 60.036 465.654 59.4033 465.654 58.43ZM514.587 41.494L532.326 65H519.697L508.09 48.648L496.41 65H484.292L501.666 42.224L484.876 19.594H497.578L508.09 34.924L518.529 19.594H530.72L514.587 41.494Z" fill="#333E54"/>
<g clip-path="url(#clip0)">
<path d="M76.9979 12.9518L38.4988 25.9874L-0.00201416 12.9483L38.4988 0L76.9979 12.9518Z" fill="#4E6B86"/>
<path d="M38.4991 25.9874L-0.00170898 12.9483V70.9609L38.4991 84L77 70.9609V12.9483L38.4991 25.9874ZM70.6096 41.671L38.218 52.6591L22.5425 47.515V54.2615L38.218 59.4056L70.6096 48.4087V66.3877L38.4991 77.2536L6.38857 66.3877V21.8662L38.4991 32.7321L70.6096 21.8662V41.671Z" fill="#333E54"/>
<path d="M17.411 39.4926V57.2655L38.4991 64.4082L65.335 55.026V61.7725L38.4991 71.1547L11.7855 61.9732V30.7091L38.4991 39.8836L65.3402 30.5014V37.2478L38.5043 46.63L17.411 39.4926Z" fill="#333E54"/>
</g>
<defs>
<clipPath id="clip0">
<rect width="77" height="84" fill="white"/>
</clipPath>
</defs>
</svg>
