<svg width="40" height="40" viewBox="0 0 60 60" fill="none" xmlns="http://www.w3.org/2000/svg">
<path d="M27.9047 50.3625C26.0531 48.8766 8.85937 32.1563 8.66719 31.9734C7.90781 31.2141 7.42969 30.4266 7.29844 29.7047C7.1625 28.9547 7.39219 28.2984 8.00156 27.6891C8.56875 27.1219 9.2625 26.8219 10.0078 26.8219C10.9172 26.8219 11.85 27.2531 12.6281 28.0359L20.4234 35.5266C20.5594 35.6578 20.7375 35.7234 20.9109 35.7234C21.049 35.7237 21.1841 35.6832 21.2992 35.607C21.4143 35.5308 21.5043 35.4222 21.5579 35.295C21.6115 35.1678 21.6262 35.0276 21.6004 34.8919C21.5745 34.7563 21.5092 34.6314 21.4125 34.5328L8.96719 21.6797C7.72031 20.4328 7.13437 18.525 8.61562 17.0438C9.18281 16.4766 9.87656 16.1766 10.6219 16.1766C11.5312 16.1766 12.4641 16.6078 13.2422 17.3906L25.9734 29.8031C26.1094 29.9344 26.2875 30.0047 26.4656 30.0047C26.6437 30.0047 26.8266 29.9344 26.9625 29.7984C27.2344 29.5266 27.2391 29.0859 26.9672 28.8094L11.6766 13.1344C10.9687 12.4266 10.5422 11.5781 10.4672 10.7531C10.3969 9.91407 10.6922 9.13594 11.325 8.50313C11.8922 7.93594 12.5859 7.63594 13.3312 7.63594C14.2406 7.63594 15.1734 8.06719 15.9516 8.84532L31.5469 24.0516C31.6828 24.1828 31.8609 24.2531 32.0391 24.2531C32.2172 24.2531 32.4 24.1828 32.5359 24.0469C32.8078 23.775 32.8125 23.3344 32.5406 23.0578L21.2156 11.4188C20.5031 10.7063 20.0766 9.86251 20.0062 9.03751C19.9359 8.19844 20.2312 7.42032 20.8641 6.78751C21.4312 6.22032 22.125 5.92032 22.8703 5.92032C23.7797 5.92032 24.7125 6.35157 25.4906 7.13438C29.6437 11.2125 40.4859 21.8766 40.8516 22.2703C42.2437 23.2313 42.525 21.7781 42.5953 20.8359C42.675 19.7391 41.4187 15.9094 42.15 12.4641C43.3781 7.88438 46.9172 8.63438 46.9969 8.67188C48.9375 9.58126 48.5672 10.9406 47.8781 13.6734L47.8078 14.2125C47.0859 17.7844 52.0453 28.3688 52.4109 29.1609C54.3562 33.4172 56.5969 42.0469 49.1766 49.4672C41.0438 57.6 30.975 53.4328 27.9047 50.3625Z" fill="url(#paint0_radial)"/>
<path d="M38.339 54.9281C33.3515 54.9281 29.1093 52.5422 27.4359 50.8875C25.9312 49.6594 16.4343 40.4906 8.69997 32.9859C8.3859 32.6813 8.20309 32.5078 8.18434 32.4844C7.30778 31.6078 6.76403 30.6938 6.60934 29.8313C6.43122 28.8516 6.7359 27.9656 7.50465 27.1922C8.20778 26.4891 9.07028 26.1188 10.0078 26.1188C11.1093 26.1188 12.2156 26.625 13.125 27.5391L20.9109 35.0203L8.4609 22.1672C7.02653 20.7328 6.30465 18.3563 8.11872 16.5469C8.82184 15.8438 9.68434 15.4734 10.6218 15.4734C11.7234 15.4734 12.8297 15.9797 13.739 16.8938L26.4609 29.2969L11.175 13.6266C10.3593 12.8109 9.85778 11.8125 9.76872 10.8188C9.67965 9.75938 10.0453 8.78907 10.8281 8.00626C11.5312 7.30313 12.3937 6.93282 13.3312 6.93282C14.4281 6.93282 15.5343 7.43438 16.4484 8.34844L32.039 23.55L20.714 11.9109C19.8937 11.0906 19.3922 10.0922 19.3078 9.09844C19.2187 8.04376 19.5843 7.07344 20.3672 6.29063C21.0703 5.58751 21.9328 5.21719 22.8703 5.21719C23.9718 5.21719 25.0781 5.72344 25.9875 6.63751L29.3672 9.95157C35.3906 15.8578 40.425 20.8031 40.964 21.3563C41.2265 21.5672 41.5687 21.6469 41.714 21.5766C41.8078 21.5297 41.9109 21.3141 41.8922 20.8594C41.864 20.0625 41.7515 19.0734 41.6343 18.0281C41.4 15.9281 41.1562 13.7531 41.4609 12.3188C42.1265 9.82969 43.4343 8.77501 44.4093 8.32032C45.75 7.70157 47.0484 7.91719 47.2968 8.03438C49.7343 9.17813 49.2515 11.0906 48.5859 13.7438L48.5718 13.8094L48.4968 14.3578C48.0093 16.7578 50.5125 23.3906 53.0156 28.7953L53.0531 28.8703C54.7265 32.5266 57.7406 41.9063 49.6781 49.9688C45.9703 53.6672 41.9578 54.9281 38.339 54.9281ZM10.0078 27.525C9.45465 27.525 8.92965 27.7547 8.4984 28.1859C8.05309 28.6313 7.8984 29.0625 7.99215 29.5781C8.09528 30.1453 8.51247 30.8203 9.16403 31.4766C9.16872 31.4813 9.35622 31.6641 9.67965 31.9734C20.6578 42.6281 27.2859 48.9609 28.3453 49.8141L28.4015 49.8656C30.989 52.4531 40.6031 57.0469 48.6797 48.9703C56.1187 41.5313 53.3203 32.8453 51.7687 29.4516L51.7359 29.3813C50.1234 25.9031 46.4578 17.4656 47.1093 14.1L47.2172 13.3969C47.939 10.5281 47.9812 9.92813 46.7578 9.33751C46.3968 9.27188 43.8093 8.95782 42.8203 12.6469C42.5718 13.8234 42.8109 15.975 43.0218 17.8734C43.1437 18.9469 43.2562 19.9641 43.2843 20.8125C43.3312 22.1484 42.6984 22.6594 42.314 22.8469C41.5312 23.2266 40.5984 22.9031 40.0172 22.4156L39.9562 22.3594C39.6703 22.05 32.8687 15.3797 28.3687 10.9641L24.9843 7.64063C23.8312 6.48282 22.3453 6.29063 21.3468 7.28907C20.8593 7.77657 20.639 8.34844 20.6906 8.98126C20.7468 9.64219 21.1031 10.3313 21.6984 10.9266L33.0468 22.5656C33.3047 22.8308 33.4482 23.1867 33.4465 23.5566C33.4447 23.9265 33.2979 24.281 33.0375 24.5438C32.5172 25.0641 31.5984 25.0734 31.064 24.5578L15.4593 9.34688C14.3062 8.19376 12.8156 8.00157 11.8218 9.00001C11.3343 9.48751 11.114 10.0594 11.1656 10.6922C11.2265 11.3531 11.5828 12.0469 12.1734 12.6328L27.4687 28.3172C28.0078 28.8609 28.0031 29.7516 27.4593 30.2953C26.939 30.8156 26.0203 30.825 25.4859 30.3094L12.75 17.8922C11.5968 16.7297 10.1062 16.5422 9.11247 17.5406C7.8984 18.7547 8.54528 20.2594 9.46403 21.1828L21.9187 34.0453C22.1759 34.3093 22.3186 34.664 22.316 35.0326C22.3133 35.4011 22.1655 35.7538 21.9047 36.0141C21.3797 36.5391 20.4703 36.5438 19.9359 36.0328L12.1406 28.5422C11.4843 27.8813 10.7297 27.525 10.0078 27.525Z" fill="#FFB300"/>
<path d="M39.7312 21.8156C37.1578 27.0703 37.4906 34.425 41.3531 40.3266C41.789 41.1234 42.5344 40.7344 42.1547 39.9141C37.4906 29.9344 42.3797 22.7438 42.3797 22.7438L39.7312 21.8156Z" fill="#FFB300"/>
<path d="M29.611 2.10937C31.0266 1.73906 32.536 1.77187 34.0031 2.11406C35.461 2.46562 36.9188 3.20625 38.0016 4.41562C39.061 5.61562 39.7125 7.07344 39.9328 8.60156C40.1391 10.1156 39.9469 11.6766 39.2297 12.9703C39.1453 11.5172 38.8922 10.1812 38.4656 8.94844C38.2453 8.33437 37.9875 7.74844 37.6735 7.19531C37.3641 6.64687 36.9985 6.10312 36.6094 5.65781C35.8172 4.74375 34.7438 4.03125 33.5391 3.47812C32.3297 2.90625 31.0125 2.48437 29.611 2.10937Z" fill="#333E54"/>
<path d="M30 6.55313C30.7828 6.05626 31.7625 5.95313 32.6859 6.11719C33.6188 6.28126 34.5094 6.74532 35.2125 7.38751C35.9109 8.03907 36.4078 8.85938 36.7172 9.71251C36.8672 10.1391 36.9422 10.5891 37.0125 11.025C37.0359 11.475 37.0359 11.925 36.9656 12.375C36.6422 12.0328 36.3891 11.6906 36.15 11.3578C35.8734 11.0438 35.6578 10.7109 35.4094 10.4063C34.9219 9.80157 34.4484 9.25313 33.9375 8.76563C33.4125 8.29219 32.8594 7.87501 32.2172 7.51407C31.5797 7.14376 30.8625 6.83438 30 6.55313Z" fill="#333E54"/>
<path d="M3.20159 36.2531C3.86252 37.5469 4.55159 38.7469 5.35315 39.8062C6.15002 40.8656 7.06409 41.7656 8.12815 42.3516C8.64377 42.6375 9.25784 42.8859 9.85784 43.0734C10.4625 43.2656 11.0906 43.3969 11.7375 43.4859C13.0313 43.6453 14.3906 43.6172 15.8297 43.3969C14.7141 44.3672 13.2235 44.8828 11.7047 44.9953C10.1672 45.0984 8.60627 44.7656 7.2094 43.9781C5.80315 43.1766 4.7719 41.9016 4.12502 40.5469C3.47815 39.1828 3.13127 37.7156 3.20159 36.2531Z" fill="#333E54"/>
<path d="M7.63127 35.7047C8.08596 36.4922 8.53596 37.125 9.02814 37.6781C9.51564 38.2312 10.0406 38.6859 10.6125 39.0984C11.1938 39.4969 11.8313 39.8484 12.525 40.2C12.8719 40.3781 13.2422 40.5187 13.6078 40.725C13.9875 40.8891 14.3719 41.0625 14.775 41.3109C14.3485 41.4703 13.9125 41.5641 13.4672 41.6344C13.0266 41.6531 12.5719 41.6766 12.1219 41.6156C11.2219 41.4937 10.3219 41.1797 9.53439 40.6312C8.76096 40.0734 8.11877 39.3 7.7672 38.4234C7.41095 37.5516 7.30783 36.5766 7.63127 35.7047Z" fill="#333E54"/>
<defs>
<radialGradient id="paint0_radial" cx="0" cy="0" r="1" gradientUnits="userSpaceOnUse" gradientTransform="translate(20.6468 17.8128) rotate(-45) scale(42.66)">
<stop offset="0.353" stop-color="#FFCA28"/>
<stop offset="0.872" stop-color="#FFB300"/>
</radialGradient>
</defs>
</svg>
